PathFileType	4	(X/Y/Z)	test.trc
DataRate	CameraRate	NumFrames	NumMarkers	Units	OrigDataRate	OrigDataStartFrame	OrigNumFrames
30	30	21	17	m	30	0	93
Frame#	Time	LKnee			RKnee			LAnkle			RAnkle			LHip			RHip			LWrist			RWrist			LElbow			RElbow			LShoulder			RShoulder			LFoot			RFoot			Head			Neck			Pelvis		
		X1	Y1	Z1	X2	Y2	Z2	X3	Y3	Z3	X4	Y4	Z4	X5	Y5	Z5	X6	Y6	Z6	X7	Y7	Z7	X8	Y8	Z8	X9	Y9	Z9	X10	Y10	Z10	X11	Y11	Z11	X12	Y12	Z12	X13	Y13	Z13	X14	Y14	Z14	X15	Y15	Z15	X16	Y16	Z16	X17	Y17	Z17
0	0.0	-0.035006314516067505	-0.020696066319942474	-0.03779756650328636	-0.01749357208609581	-0.0	-0.0	0.06147415563464165	-0.07991694658994675	-0.0014565340243279934	0.07718631625175476	-0.21236775815486908	0.02246289886534214	0.04759982228279114	0.009362039156258106	0.052852366119623184	-0.06834623217582703	-0.0
1	0.03333333333333333	-0.03511093556880951	-0.020532576367259026	-0.03787130117416382	-0.017368068918585777	-0.0	-0.0	0.06128794699907303	-0.07997433841228485	-0.001476915436796844	0.07721434533596039	-0.21245984733104706	0.02259165048599243	0.047656185925006866	0.009166772477328777	0.05299840867519379	-0.06833599507808685	-0.0
2	0.06666666666666667	-0.035165391862392426	-0.020583484321832657	-0.03745703399181366	-0.017850099131464958	-0.0	-0.0	0.06388934701681137	-0.08319628238677979	0.00017878800281323493	0.07385006546974182	-0.20859061181545258	0.028943492099642754	0.04773758351802826	0.009493608959019184	0.05869007110595703	-0.06149979308247566	-0.0
3	0.1	-0.03587151691317558	-0.021020790562033653	-0.03744528070092201	-0.01692603901028633	-0.0	-0.0	0.06427618861198425	-0.08265020698308945	-9.257557394448668e-06	0.07257906347513199	-0.20397678017616272	0.04509154334664345	0.04820016771554947	0.009105577133595943	0.06079863756895065	-0.05575310438871384	-0.0
4	0.13333333333333333	-0.03613123670220375	-0.022442122921347618	-0.03671160340309143	-0.016112826764583588	-0.0	-0.0	0.0657905861735344	-0.08720514178276062	-0.002077133860439062	0.07035896927118301	-0.20362424850463867	0.04420934617519379	0.048332978039979935	0.009574166499078274	0.05572132393717766	-0.057618387043476105	-0.0
5	0.16666666666666666	-0.03695867210626602	-0.021392647176980972	-0.037779998034238815	-0.013300859369337559	-0.0	-0.0	0.06298410892486572	-0.08855104446411133	-0.0028011337853968143	0.07192543894052505	-0.2024032175540924	0.04706669971346855	0.04893730953335762	0.007071436382830143	0.06442361325025558	-0.05935071408748627	-0.0
6	0.2	-0.035540636628866196	-0.024011973291635513	-0.03839082270860672	-0.012765266932547092	-0.0	-0.0	0.06094159558415413	-0.09400419890880585	-0.005338961258530617	0.07763694226741791	-0.2120465189218521	0.012752292677760124	0.04852675274014473	0.00857365783303976	0.06990371644496918	-0.06687203794717789	-0.0
7	0.23333333333333334	-0.03755320608615875	-0.019204532727599144	-0.039923109114170074	-0.010224943049252033	-0.0	-0.0	0.053492221981287	-0.09955941140651703	-0.006168932653963566	0.08218175172805786	-0.2171432077884674	-0.0027079845312982798	0.049383699893951416	0.0036281016655266285	0.062134210020303726	-0.07112468034029007	-0.0
8	0.26666666666666666	-0.03738310560584068	-0.01928604766726494	-0.03848541900515556	-0.013455955311655998	-0.0	-0.0	0.05454025790095329	-0.09791113436222076	-0.005138501524925232	0.08436635136604309	-0.2136329859495163	-0.03190271183848381	0.04903397709131241	0.005684311036020517	0.06689877808094025	-0.06920532882213593	-0.0
9	0.3	-0.037845853716135025	-0.01956142857670784	-0.038456305861473083	-0.012121792882680893	-0.0	-0.0	0.05001566559076309	-0.09550855308771133	-0.005335255526006222	0.08950735628604889	-0.2090051919221878	-0.049524493515491486	0.049168940633535385	0.005044544115662575	0.07254020124673843	-0.07642608135938644	-0.0
10	0.3333333333333333	-0.03917530179023743	-0.01906607300043106	-0.03859351947903633	-0.010225235484540462	-0.0	-0.0	0.05126311257481575	-0.07900338619947433	-0.007665077690035105	0.0864485576748848	-0.21432143449783325	-0.003623972414061427	0.049696117639541626	0.003418409964069724	0.07327011227607727	-0.07137246429920197	-0.0
11	0.36666666666666664	-0.03986218944191933	-0.018511684611439705	-0.03872726857662201	-0.00884799100458622	-0.0	-0.0	0.04972304403781891	-0.06283275038003922	-0.007874366827309132	0.08641064167022705	-0.20890888571739197	0.03752535209059715	0.04978417605161667	0.0022382314782589674	0.0728282779455185	-0.06630148738622665	-0.0
12	0.4	-0.0380069874227047	-0.021216964349150658	-0.03976287320256233	-0.007834082469344139	-0.0	-0.0	0.05186488851904869	-0.053381096571683884	-0.00763365626335144	0.08492079377174377	-0.2089400440454483	0.05174752324819565	0.049400001764297485	0.00356350839138031	0.05276709049940109	-0.06408588588237762	-0.0
13	0.43333333333333335	-0.03880980983376503	-0.020151732489466667	-0.04042293503880501	-0.006986268796026707	-0.0	-0.0	0.04957754164934158	-0.03887374326586723	-0.004621915519237518	0.08730293810367584	-0.202769935131073	0.07607287168502808	0.04989727586507797	0.0021664686501026154	0.03306913003325462	-0.05874956026673317	-0.0
14	0.4666666666666667	-0.039049167186021805	-0.019637389108538628	-0.040659576654434204	-0.006074538454413414	-0.0	-0.0	0.04725980758666992	-0.033582817763090134	-0.006970979273319244	0.08820177614688873	-0.19890134036540985	0.08332992345094681	0.049871183931827545	0.001321180141530931	0.0153135284781456	-0.0629405602812767	-0.0
15	0.5	-0.03962469846010208	-0.02106541208922863	-0.038752004504203796	-0.00674861017614603	-0.0	-0.0	0.05052560195326805	-0.028347957879304886	-0.010136676020920277	0.08503936976194382	-0.18670514225959778	0.0954969972372055	0.04947446286678314	0.002823502290993929	0.00328287435695529	-0.055138006806373596	-0.0
16	0.5333333333333333	-0.039973385632038116	-0.020929092541337013	-0.03833767771720886	-0.006361688021570444	-0.0	-0.0	0.0493595190346241	-0.022715624421834946	-0.00750779639929533	0.08674956858158112	-0.1655668169260025	0.11721068620681763	0.0495644174516201	0.002538881730288267	-0.0026866826228797436	-0.05521934852004051	-0.0
17	0.5666666666666667	-0.041338954120874405	-0.016196954995393753	-0.039315905421972275	-0.004038079176098108	-0.0	-0.0	0.0426386222243309	-0.01743904873728752	-0.0034316217061132193	0.0900702178478241	-0.15576677024364471	0.12913155555725098	0.04967879131436348	-0.002040258375927806	-0.005190371535718441	-0.04708506166934967	-0.0
18	0.6	-0.04006526619195938	-0.01652180403470993	-0.038620028644800186	-0.008486996404826641	-0.0	-0.0	0.04405071586370468	-0.008440504781901836	-0.0017442012904211879	0.09073491394519806	-0.16513589024543762	0.11566294729709625	0.04927005246281624	0.0009555123979225755	0.0046571712009608746	-0.03603909909725189	-0.0
19	0.6333333333333333	-0.04041973501443863	-0.014543441124260426	-0.039657969027757645	-0.008409368805587292	-0.0	-0.0	0.04080815613269806	-0.005612706765532494	0.0013949826825410128	0.09295161068439484	-0.17494916915893555	0.10875756293535233	0.04973045736551285	-0.0005542207509279251	0.006699446588754654	-0.03122684173285961	-0.0
20	0.6666666666666666	-0.04116455093026161	-0.013108527287840843	-0.040249764919281006	-0.0039163753390312195	-0.0	-0.0	0.02888014353811741	-0.006508063990622759	0.0007676475797779858	0.09963765740394592	-0.1902560591697693	0.09349994361400604	0.04948233813047409	-0.004077059216797352	0.006019935943186283	-0.038809482008218765	-0.0
